<?xml version="1.0" encoding="UTF-8" standalone="no"?>
<!DOCTYPE svg PUBLIC "-//W3C//DTD SVG 1.1//EN" "http://www.w3.org/Graphics/SVG/1.1/DTD/svg11.dtd">
<svg width="100%" height="100%" viewBox="0 0 493 99" version="1.1" xmlns="http://www.w3.org/2000/svg" xmlns:xlink="http://www.w3.org/1999/xlink" xml:space="preserve" xmlns:serif="http://www.serif.com/" style="fill-rule:evenodd;clip-rule:evenodd;stroke-linejoin:round;stroke-miterlimit:2;">
    <g transform="matrix(1,0,0,1,-8403.27,-3683.26)">
        <g transform="matrix(1,0,0,1,877.728,1338.09)">
            <g transform="matrix(2.7058,0,0,2.4706,-3579.06,-2425.56)">
                <path d="M4286,1935.43C4286,1934.25 4285.57,1933.13 4284.82,1932.3C4284.06,1931.47 4283.03,1931 4281.96,1931C4257.75,1931 4132.25,1931 4108.04,1931C4106.97,1931 4105.94,1931.47 4105.18,1932.3C4104.43,1933.13 4104,1934.25 4104,1935.43C4104,1943.12 4104,1958.88 4104,1966.57C4104,1967.75 4104.43,1968.87 4105.18,1969.7C4105.94,1970.53 4106.97,1971 4108.04,1971C4132.25,1971 4257.75,1971 4281.96,1971C4283.03,1971 4284.06,1970.53 4284.82,1969.7C4285.57,1968.87 4286,1967.75 4286,1966.57C4286,1958.88 4286,1943.12 4286,1935.43Z" style="fill:rgb(255,102,0);"/>
            </g>
            <g transform="matrix(2.60629,0,0,2.60629,-3286.88,-4421.87)">
                <g transform="matrix(27.3973,0,0,27.3973,4189,2623)">
                    <path d="M0.083,-0.727L0.083,-0.531L0.015,-0.531L0.015,-0.417L0.083,-0.417L0.083,-0L0.216,-0L0.216,-0.417L0.295,-0.417L0.295,-0.531L0.216,-0.531L0.216,-0.727L0.083,-0.727Z" style="fill:white;fill-rule:nonzero;"/>
                </g>
                <g transform="matrix(27.3973,0,0,27.3973,4197.19,2623)">
                    <path d="M0.12,-0.75C0.097,-0.75 0.077,-0.742 0.06,-0.725C0.043,-0.708 0.035,-0.688 0.035,-0.665C0.035,-0.64 0.043,-0.62 0.06,-0.603C0.077,-0.586 0.097,-0.577 0.121,-0.577C0.144,-0.577 0.163,-0.585 0.18,-0.602C0.197,-0.619 0.205,-0.639 0.205,-0.663C0.205,-0.687 0.197,-0.708 0.18,-0.725C0.163,-0.742 0.143,-0.75 0.12,-0.75ZM0.053,-0.531L0.053,-0L0.187,-0L0.187,-0.531L0.053,-0.531Z" style="fill:white;fill-rule:nonzero;"/>
                </g>
                <g transform="matrix(27.3973,0,0,27.3973,4203.74,2623)">
                    <path d="M0.2,-0.531L0.067,-0.531L0.067,0.194L0.2,0.194L0.2,-0.056C0.226,-0.031 0.252,-0.014 0.279,-0.003C0.305,0.009 0.333,0.014 0.364,0.014C0.433,0.014 0.492,-0.013 0.542,-0.066C0.592,-0.119 0.617,-0.186 0.617,-0.265C0.617,-0.347 0.593,-0.414 0.545,-0.467C0.496,-0.519 0.437,-0.545 0.368,-0.545C0.336,-0.545 0.306,-0.539 0.278,-0.527C0.25,-0.515 0.224,-0.497 0.2,-0.473L0.2,-0.531ZM0.34,-0.422C0.381,-0.422 0.416,-0.407 0.443,-0.378C0.47,-0.349 0.484,-0.311 0.484,-0.266C0.484,-0.22 0.47,-0.182 0.443,-0.153C0.415,-0.123 0.381,-0.108 0.34,-0.108C0.298,-0.108 0.263,-0.123 0.236,-0.152C0.208,-0.181 0.194,-0.22 0.194,-0.267C0.194,-0.313 0.208,-0.35 0.236,-0.379C0.263,-0.408 0.298,-0.422 0.34,-0.422Z" style="fill:white;fill-rule:nonzero;"/>
                </g>
                <g transform="matrix(27.3973,0,0,27.3973,4221.82,2623)">
                    <path d="M0.02,-0.531L0.202,-0.28L0,-0L0.153,-0L0.278,-0.174L0.405,-0L0.56,-0L0.355,-0.28L0.537,-0.531L0.384,-0.531L0.278,-0.386L0.174,-0.531L0.02,-0.531Z" style="fill:white;fill-rule:nonzero;"/>
                </g>
                <g transform="matrix(27.3973,0,0,27.3973,4237.16,2623)">
                    <path d="M0.063,-0.535L0.063,-0.002L0.197,-0.002L0.197,-0.239C0.197,-0.29 0.201,-0.328 0.21,-0.352C0.219,-0.376 0.232,-0.395 0.251,-0.408C0.269,-0.421 0.289,-0.427 0.312,-0.428C0.313,-0.428 0.314,-0.428 0.315,-0.428C0.333,-0.428 0.349,-0.423 0.363,-0.412C0.377,-0.402 0.387,-0.386 0.394,-0.364C0.401,-0.341 0.405,-0.306 0.405,-0.261L0.405,-0.002L0.539,-0.002L0.539,-0.243C0.539,-0.294 0.544,-0.331 0.553,-0.354C0.562,-0.378 0.576,-0.396 0.593,-0.408C0.611,-0.421 0.632,-0.427 0.655,-0.428C0.656,-0.428 0.657,-0.428 0.657,-0.428C0.686,-0.428 0.707,-0.417 0.722,-0.395C0.737,-0.372 0.745,-0.331 0.745,-0.273L0.745,-0.002L0.879,-0.002L0.879,-0.315C0.879,-0.38 0.873,-0.426 0.861,-0.454C0.849,-0.482 0.828,-0.505 0.799,-0.523C0.771,-0.54 0.738,-0.549 0.699,-0.549C0.662,-0.549 0.628,-0.541 0.597,-0.525C0.568,-0.51 0.542,-0.486 0.519,-0.453C0.502,-0.485 0.481,-0.509 0.455,-0.525C0.429,-0.541 0.399,-0.549 0.364,-0.549C0.331,-0.549 0.301,-0.543 0.273,-0.531C0.246,-0.52 0.22,-0.501 0.197,-0.474L0.197,-0.535L0.063,-0.535Z" style="fill:white;fill-rule:nonzero;"/>
                </g>
                <g transform="matrix(27.3973,0,0,27.3973,4262.78,2623)">
                    <path d="M0.036,-0.531L0.036,-0L0.168,-0L0.168,-0.241C0.168,-0.315 0.175,-0.365 0.189,-0.39C0.203,-0.415 0.22,-0.428 0.241,-0.428L0.244,-0.428C0.254,-0.428 0.266,-0.424 0.28,-0.417L0.321,-0.531C0.302,-0.54 0.284,-0.545 0.267,-0.545C0.242,-0.545 0.22,-0.538 0.2,-0.525C0.179,-0.511 0.163,-0.491 0.15,-0.464L0.15,-0.531L0.036,-0.531Z" style="fill:white;fill-rule:nonzero;"/>
                </g>
                <g transform="matrix(27.3973,0,0,27.3973,4271.52,2623)">
                    <path d="M0.14,-0.139C0.119,-0.139 0.101,-0.132 0.086,-0.117C0.071,-0.102 0.063,-0.084 0.063,-0.063C0.063,-0.042 0.071,-0.024 0.086,-0.009C0.101,0.007 0.119,0.014 0.14,0.014C0.161,0.014 0.18,0.007 0.195,-0.009C0.21,-0.024 0.217,-0.042 0.217,-0.063C0.217,-0.084 0.21,-0.102 0.195,-0.117C0.18,-0.132 0.161,-0.139 0.14,-0.139Z" style="fill:white;fill-rule:nonzero;"/>
                </g>
                <g transform="matrix(27.3973,0,0,27.3973,4279.16,2623)">
                    <rect x="0.053" y="-0.736" width="0.134" height="0.736" style="fill:white;fill-rule:nonzero;"/>
                </g>
                <g transform="matrix(27.3973,0,0,27.3973,4285.71,2623)">
                    <path d="M0.12,-0.75C0.097,-0.75 0.077,-0.742 0.06,-0.725C0.043,-0.708 0.035,-0.688 0.035,-0.665C0.035,-0.64 0.043,-0.62 0.06,-0.603C0.077,-0.586 0.097,-0.577 0.121,-0.577C0.144,-0.577 0.163,-0.585 0.18,-0.602C0.197,-0.619 0.205,-0.639 0.205,-0.663C0.205,-0.687 0.197,-0.708 0.18,-0.725C0.163,-0.742 0.143,-0.75 0.12,-0.75ZM0.053,-0.531L0.053,-0L0.187,-0L0.187,-0.531L0.053,-0.531Z" style="fill:white;fill-rule:nonzero;"/>
                </g>
                <g transform="matrix(27.3973,0,0,27.3973,4292.26,2623)">
                    <path d="M0.01,-0.531L0.237,-0L0.323,-0L0.549,-0.531L0.414,-0.531L0.28,-0.218L0.146,-0.531L0.01,-0.531Z" style="fill:white;fill-rule:nonzero;"/>
                </g>
                <g transform="matrix(27.3973,0,0,27.3973,4307.6,2623)">
                    <path d="M0.6,-0.227L0.6,-0.252C0.6,-0.34 0.574,-0.411 0.521,-0.465C0.468,-0.518 0.4,-0.545 0.317,-0.545C0.238,-0.545 0.173,-0.518 0.121,-0.465C0.068,-0.412 0.042,-0.344 0.042,-0.263C0.042,-0.184 0.068,-0.118 0.121,-0.065C0.174,-0.012 0.242,0.014 0.325,0.014C0.378,0.014 0.425,0.005 0.464,-0.015C0.503,-0.034 0.536,-0.063 0.564,-0.103L0.452,-0.156C0.417,-0.121 0.374,-0.104 0.324,-0.104C0.282,-0.104 0.248,-0.115 0.221,-0.137C0.194,-0.159 0.177,-0.189 0.171,-0.227L0.6,-0.227ZM0.466,-0.332L0.177,-0.332C0.192,-0.365 0.209,-0.388 0.226,-0.401C0.254,-0.422 0.287,-0.432 0.324,-0.432C0.358,-0.432 0.388,-0.423 0.414,-0.404C0.44,-0.385 0.457,-0.361 0.466,-0.332Z" style="fill:white;fill-rule:nonzero;"/>
                </g>
            </g>
            <g transform="matrix(0.979465,0,0,0.979465,784.342,-720.687)">
                <path d="M6922.26,3194.29L6933.35,3194.29L6933.35,3180.61L6944.94,3190.85L6956.52,3180.61L6956.52,3194.29L6967.62,3194.29C6962.97,3201.96 6954.55,3207.09 6944.94,3207.09C6935.33,3207.09 6926.9,3201.96 6922.26,3194.29ZM6919.63,3188.47C6918.86,3185.98 6918.44,3183.33 6918.44,3180.59C6918.44,3165.96 6930.31,3154.09 6944.94,3154.09C6959.56,3154.09 6971.44,3165.96 6971.44,3180.59C6971.44,3183.33 6971.02,3185.98 6970.25,3188.47L6962.45,3188.47L6962.45,3166.89L6944.94,3182.79L6927.43,3166.89L6927.43,3188.47L6919.63,3188.47Z" style="fill:white;"/>
            </g>
        </g>
    </g>
</svg>
